<mxfile host="app.diagrams.net" agent="Mozilla/5.0 (Windows NT 10.0; Win64; x64) AppleWebKit/537.36 (KHTML, like Gecko) Chrome/131.0.0.0 Safari/537.36" version="26.0.10">
  <diagram id="C5RBs43oDa-KdzZeNtuy" name="Page-1">
    <mxGraphModel dx="1290" dy="1726" grid="1" gridSize="10" guides="1" tooltips="1" connect="1" arrows="1" fold="1" page="1" pageScale="1" pageWidth="827" pageHeight="1169" math="0" shadow="0">
      <root>
        <mxCell id="WIyWlLk6GJQsqaUBKTNV-0" />
        <mxCell id="WIyWlLk6GJQsqaUBKTNV-1" parent="WIyWlLk6GJQsqaUBKTNV-0" />
        <mxCell id="w3oDjt0MCiLCRGM7U3Oa-0" style="edgeStyle=orthogonalEdgeStyle;rounded=0;orthogonalLoop=1;jettySize=auto;html=1;exitX=0.5;exitY=1;exitDx=0;exitDy=0;entryX=0.5;entryY=0;entryDx=0;entryDy=0;" edge="1" parent="WIyWlLk6GJQsqaUBKTNV-1" source="w3oDjt0MCiLCRGM7U3Oa-1" target="w3oDjt0MCiLCRGM7U3Oa-5">
          <mxGeometry relative="1" as="geometry" />
        </mxCell>
        <mxCell id="w3oDjt0MCiLCRGM7U3Oa-1" value="&lt;div&gt;Initialize the experiment&lt;/div&gt;&lt;div&gt;&lt;hr&gt;&lt;ul&gt;&lt;li style=&quot;text-align: left;&quot;&gt;&lt;span style=&quot;background-color: transparent;&quot;&gt;Berkeley Nucleonics Model 575 : Pulse/ Delay generator&lt;/span&gt;&lt;/li&gt;&lt;li style=&quot;text-align: left;&quot;&gt;BEHLKE switch: High Voltage (HV) switch for Pulse Drift Tube (PDT)&lt;/li&gt;&lt;li style=&quot;text-align: left;&quot;&gt;&lt;span style=&quot;background-color: transparent;&quot;&gt;Stahl HV 1000:&amp;nbsp;&lt;/span&gt;Switch for BEHLKE switch&lt;/li&gt;&lt;li style=&quot;text-align: left;&quot;&gt;CAEN R8034: Power supply for sickler lens&lt;/li&gt;&lt;li style=&quot;text-align: left;&quot;&gt;&lt;span style=&quot;background-color: transparent; color: light-dark(rgb(0, 0, 0), rgb(255, 255, 255));&quot;&gt;Stahl HV‐250‐8: Voltage source for Creation Trap (CT)&lt;/span&gt;&lt;/li&gt;&lt;li style=&quot;text-align: left;&quot;&gt;Stahl BS-1-10 Cryo :&amp;nbsp;Biasing for amplifiers&lt;/li&gt;&lt;span style=&quot;background-color: transparent;&quot;&gt;&lt;/span&gt;&lt;li style=&quot;text-align: left;&quot;&gt;Stahl HV-200 : Voltage source for Spectroscopy Trap (ST)&lt;/li&gt;&lt;li style=&quot;text-align: left;&quot;&gt;Stahl BS 1-8 and BS 34-1 :&amp;nbsp;Precision multichannel voltage source for ST&lt;/li&gt;&lt;li style=&quot;text-align: left;&quot;&gt;UM : Ultra high precision voltage source (UM) for ST&lt;/li&gt;&lt;li style=&quot;text-align: left;&quot;&gt;Stahl HV 500 :&amp;nbsp;Power supply for SWIFT&lt;/li&gt;&lt;li style=&quot;text-align: left;&quot;&gt;&lt;span style=&quot;background-color: transparent; color: light-dark(rgb(0, 0, 0), rgb(255, 255, 255));&quot;&gt;Stahl HV FEP 4kV 3 :&amp;nbsp;&lt;/span&gt;Voltage source for FEP&lt;/li&gt;&lt;li style=&quot;text-align: left;&quot;&gt;Picoammeter for endcap electrode&lt;/li&gt;&lt;/ul&gt;&lt;/div&gt;" style="rounded=1;whiteSpace=wrap;html=1;" vertex="1" parent="WIyWlLk6GJQsqaUBKTNV-1">
          <mxGeometry x="115" y="20" width="470" height="260" as="geometry" />
        </mxCell>
        <mxCell id="w3oDjt0MCiLCRGM7U3Oa-2" value="" style="edgeStyle=orthogonalEdgeStyle;rounded=0;orthogonalLoop=1;jettySize=auto;html=1;" edge="1" parent="WIyWlLk6GJQsqaUBKTNV-1" source="w3oDjt0MCiLCRGM7U3Oa-3" target="w3oDjt0MCiLCRGM7U3Oa-1">
          <mxGeometry relative="1" as="geometry" />
        </mxCell>
        <mxCell id="w3oDjt0MCiLCRGM7U3Oa-3" value="" style="ellipse;html=1;shape=endState;fillColor=#000000;strokeColor=#ff0000;" vertex="1" parent="WIyWlLk6GJQsqaUBKTNV-1">
          <mxGeometry x="335" y="-60" width="30" height="30" as="geometry" />
        </mxCell>
        <mxCell id="w3oDjt0MCiLCRGM7U3Oa-4" style="edgeStyle=orthogonalEdgeStyle;rounded=0;orthogonalLoop=1;jettySize=auto;html=1;exitX=0.5;exitY=1;exitDx=0;exitDy=0;entryX=0.5;entryY=0;entryDx=0;entryDy=0;" edge="1" parent="WIyWlLk6GJQsqaUBKTNV-1" source="w3oDjt0MCiLCRGM7U3Oa-5" target="w3oDjt0MCiLCRGM7U3Oa-7">
          <mxGeometry relative="1" as="geometry" />
        </mxCell>
        <mxCell id="w3oDjt0MCiLCRGM7U3Oa-5" value="&lt;div&gt;Inject ions&lt;/div&gt;&lt;div&gt;&lt;hr&gt;&lt;div align=&quot;center&quot;&gt;&lt;ul&gt;&lt;li&gt;&lt;span style=&quot;background-color: transparent;&quot;&gt;Berkeley Nucleonics Model 575&lt;/span&gt;&lt;/li&gt;&lt;li&gt;&lt;span style=&quot;background-color: transparent;&quot;&gt;&lt;span style=&quot;text-align: left;&quot;&gt;BEHLKE switch&lt;/span&gt;&lt;/span&gt;&lt;/li&gt;&lt;li&gt;&lt;span style=&quot;background-color: transparent;&quot;&gt;CAEN R8034&lt;/span&gt;&lt;/li&gt;&lt;li&gt;&lt;span style=&quot;text-align: left;&quot;&gt;Stahl HV 1000&lt;/span&gt;&lt;/li&gt;&lt;li&gt;Stahl HV‐250‐8&lt;/li&gt;&lt;li&gt;&lt;span style=&quot;text-align: left;&quot;&gt;Stahl BS-1-10 Cryo&lt;/span&gt;&lt;/li&gt;&lt;/ul&gt;&lt;/div&gt;&lt;/div&gt;" style="rounded=1;whiteSpace=wrap;html=1;" vertex="1" parent="WIyWlLk6GJQsqaUBKTNV-1">
          <mxGeometry x="210" y="370" width="280" height="140" as="geometry" />
        </mxCell>
        <mxCell id="w3oDjt0MCiLCRGM7U3Oa-6" style="edgeStyle=orthogonalEdgeStyle;rounded=0;orthogonalLoop=1;jettySize=auto;html=1;exitX=0.5;exitY=1;exitDx=0;exitDy=0;entryX=0.5;entryY=0;entryDx=0;entryDy=0;" edge="1" parent="WIyWlLk6GJQsqaUBKTNV-1" source="w3oDjt0MCiLCRGM7U3Oa-7" target="w3oDjt0MCiLCRGM7U3Oa-8">
          <mxGeometry relative="1" as="geometry" />
        </mxCell>
        <mxCell id="w3oDjt0MCiLCRGM7U3Oa-7" value="&lt;div&gt;Store ions&lt;/div&gt;&lt;div&gt;&lt;hr&gt;&lt;div align=&quot;center&quot;&gt;&lt;ul&gt;&lt;li&gt;&lt;span style=&quot;background-color: transparent; color: light-dark(rgb(0, 0, 0), rgb(255, 255, 255));&quot;&gt;&lt;span style=&quot;text-align: left;&quot;&gt;Stahl HV‐250‐8&lt;/span&gt;&lt;/span&gt;&lt;/li&gt;&lt;li&gt;&lt;span style=&quot;background-color: transparent; color: light-dark(rgb(0, 0, 0), rgb(255, 255, 255));&quot;&gt;&lt;span style=&quot;text-align: left;&quot;&gt;Stahl HV-200&lt;/span&gt;&lt;/span&gt;&lt;/li&gt;&lt;li&gt;&lt;span style=&quot;background-color: transparent; color: light-dark(rgb(0, 0, 0), rgb(255, 255, 255));&quot;&gt;Stahl BS-1-10 Cryo&lt;/span&gt;&lt;/li&gt;&lt;li&gt;&lt;span style=&quot;background-color: transparent;&quot;&gt;Stahl BS 1-8 and BS 34-1&lt;/span&gt;&lt;/li&gt;&lt;li&gt;&lt;span style=&quot;background-color: transparent;&quot;&gt;UM&lt;/span&gt;&lt;/li&gt;&lt;/ul&gt;&lt;/div&gt;&lt;/div&gt;" style="rounded=1;whiteSpace=wrap;html=1;" vertex="1" parent="WIyWlLk6GJQsqaUBKTNV-1">
          <mxGeometry x="210" y="570" width="280" height="150" as="geometry" />
        </mxCell>
        <mxCell id="w3oDjt0MCiLCRGM7U3Oa-8" value="&lt;div&gt;Measurements&lt;/div&gt;&lt;div&gt;&lt;hr&gt;&lt;div align=&quot;center&quot;&gt;&lt;ul&gt;&lt;li&gt;&lt;span style=&quot;background-color: transparent; color: light-dark(rgb(0, 0, 0), rgb(255, 255, 255));&quot;&gt;&lt;span style=&quot;text-align: left;&quot;&gt;Stahl HV-200&lt;/span&gt;&lt;/span&gt;&lt;/li&gt;&lt;li&gt;&lt;span style=&quot;text-align: left;&quot;&gt;Stahl BS 1-8 and BS 34-1&lt;/span&gt;&lt;/li&gt;&lt;li&gt;&lt;span style=&quot;text-align: left;&quot;&gt;UM&lt;/span&gt;&lt;/li&gt;&lt;/ul&gt;&lt;/div&gt;&lt;/div&gt;" style="rounded=1;whiteSpace=wrap;html=1;" vertex="1" parent="WIyWlLk6GJQsqaUBKTNV-1">
          <mxGeometry x="210" y="810" width="280" height="110" as="geometry" />
        </mxCell>
        <mxCell id="w3oDjt0MCiLCRGM7U3Oa-9" style="edgeStyle=orthogonalEdgeStyle;rounded=0;orthogonalLoop=1;jettySize=auto;html=1;exitX=0.5;exitY=1;exitDx=0;exitDy=0;" edge="1" parent="WIyWlLk6GJQsqaUBKTNV-1" source="w3oDjt0MCiLCRGM7U3Oa-5" target="w3oDjt0MCiLCRGM7U3Oa-5">
          <mxGeometry relative="1" as="geometry" />
        </mxCell>
        <mxCell id="w3oDjt0MCiLCRGM7U3Oa-10" style="edgeStyle=orthogonalEdgeStyle;rounded=0;orthogonalLoop=1;jettySize=auto;html=1;exitX=0.5;exitY=1;exitDx=0;exitDy=0;" edge="1" parent="WIyWlLk6GJQsqaUBKTNV-1" source="w3oDjt0MCiLCRGM7U3Oa-5" target="w3oDjt0MCiLCRGM7U3Oa-5">
          <mxGeometry relative="1" as="geometry" />
        </mxCell>
      </root>
    </mxGraphModel>
  </diagram>
</mxfile>
